<svg width="23" height="23" viewBox="0 0 23 23" fill="none" xmlns="http://www.w3.org/2000/svg">
<path d="M15.2426 3.02533C16.3217 3.02855 17.3558 3.45868 18.1189 4.22177C18.882 4.98487 19.3121 6.01892 19.3153 7.09809V15.2427C19.3121 16.3219 18.882 17.356 18.1189 18.1191C17.3558 18.8822 16.3217 19.3123 15.2426 19.3155H7.09791C6.01874 19.3123 4.98468 18.8822 4.22159 18.1191C3.4585 17.356 3.02837 16.3219 3.02515 15.2427V7.09809C3.02837 6.01892 3.4585 4.98487 4.22159 4.22177C4.98468 3.45868 6.01874 3.02855 7.09791 3.02533H15.2426ZM15.2426 1.39648H7.09791C3.96196 1.39648 1.3963 3.96214 1.3963 7.09809V15.2427C1.3963 18.3787 3.96196 20.9444 7.09791 20.9444H15.2426C18.3785 20.9444 20.9442 18.3787 20.9442 15.2427V7.09809C20.9442 3.96214 18.3785 1.39648 15.2426 1.39648Z" fill="white"/>
<path d="M16.4643 7.09803C16.2227 7.09803 15.9865 7.02637 15.7855 6.89213C15.5846 6.75788 15.428 6.56707 15.3356 6.34382C15.2431 6.12058 15.2189 5.87493 15.266 5.63793C15.3132 5.40094 15.4295 5.18325 15.6004 5.01238C15.7713 4.84152 15.989 4.72516 16.226 4.67802C16.4629 4.63088 16.7086 4.65507 16.9318 4.74754C17.1551 4.84001 17.3459 4.99661 17.4801 5.19752C17.6144 5.39843 17.686 5.63465 17.686 5.87628C17.6864 6.03682 17.655 6.19585 17.5937 6.34423C17.5325 6.49262 17.4425 6.62744 17.329 6.74096C17.2155 6.85447 17.0806 6.94445 16.9323 7.00573C16.7839 7.067 16.6248 7.09837 16.4643 7.09803ZM11.1702 7.91223C11.8146 7.91223 12.4446 8.10332 12.9804 8.46132C13.5161 8.81933 13.9337 9.32818 14.1803 9.92352C14.4269 10.5189 14.4915 11.174 14.3658 11.806C14.24 12.438 13.9297 13.0185 13.4741 13.4742C13.0184 13.9299 12.4379 14.2402 11.8059 14.3659C11.1738 14.4916 10.5187 14.4271 9.9234 14.1805C9.32806 13.9339 8.81921 13.5163 8.4612 12.9805C8.1032 12.4447 7.91211 11.8147 7.91211 11.1704C7.91303 10.3065 8.2566 9.47835 8.86741 8.86753C9.47823 8.25672 10.3064 7.91315 11.1702 7.91223ZM11.1702 6.28339C10.2037 6.28339 9.25884 6.57 8.45518 7.10699C7.65152 7.64397 7.02515 8.40721 6.65526 9.30019C6.28538 10.1932 6.1886 11.1758 6.37717 12.1238C6.56573 13.0717 7.03117 13.9425 7.71463 14.626C8.39808 15.3094 9.26885 15.7749 10.2168 15.9634C11.1648 16.152 12.1474 16.0552 13.0404 15.6853C13.9334 15.3154 14.6966 14.6891 15.2336 13.8854C15.7706 13.0817 16.0572 12.1369 16.0572 11.1704C16.0572 9.87425 15.5423 8.63123 14.6258 7.71475C13.7094 6.79826 12.4663 6.28339 11.1702 6.28339Z" fill="white"/>
</svg>
