<svg width="23" height="23" viewBox="0 0 23 23" fill="none" xmlns="http://www.w3.org/2000/svg">
<path d="M21.6423 4.77806C20.8566 5.11943 20.0254 5.34433 19.1748 5.44566C20.0687 4.92222 20.7409 4.09064 21.0654 3.10689C20.2203 3.60109 19.2972 3.94783 18.3357 4.13228C17.9308 3.70796 17.4439 3.3704 16.9045 3.14012C16.3651 2.90984 15.7845 2.79165 15.198 2.79273C12.8235 2.79273 10.9018 4.68643 10.9018 7.02083C10.9002 7.34554 10.9374 7.66928 11.0127 7.98514C9.30996 7.90531 7.64264 7.47095 6.11741 6.70984C4.59218 5.94872 3.24261 4.87762 2.15505 3.56505C1.7735 4.20826 1.57172 4.94214 1.57079 5.69001C1.57079 7.1561 2.33569 8.45202 3.49067 9.21124C2.80638 9.195 2.13611 9.01389 1.53676 8.68327V8.73563C1.53676 10.7864 3.0203 12.4925 4.98382 12.8808C4.61458 12.9793 4.23409 13.0291 3.85196 13.0292C3.58081 13.0297 3.31028 13.0033 3.0443 12.9506C3.59016 14.6305 5.17886 15.8523 7.06078 15.8872C5.53158 17.0657 3.65413 17.7027 1.72351 17.698C1.38082 17.6975 1.03845 17.6771 0.69812 17.6369C2.66215 18.891 4.94518 19.5544 7.27546 19.5481C15.1889 19.5481 19.5121 13.1034 19.5121 7.51389C19.5121 7.33063 19.5073 7.14737 19.4985 6.96847C20.3377 6.37159 21.0636 5.62984 21.6423 4.77806Z" fill="white"/>
</svg>
